<svg width="121" height="120" fill="none" xmlns="http://www.w3.org/2000/svg"><mask id="a" style="mask-type:alpha" maskUnits="userSpaceOnUse" x="0" y="0" width="121" height="120"><circle cx="60.5" cy="60" r="60" fill="#C4C4C4"/></mask><g mask="url(#a)"><circle cx="60.5" cy="60" r="60" fill="#FFF6E3"/><path d="M81.198 61.71c-3.696 1.356-8.354.945-11.619-1.142-3.28-2.097-6.288-3.639-10.455-3.75-2.588-.07-5.016.904-7.48 1.459-2.17.489-3.826 2.053-6.163 2.342-3.073.378-6.226-1.32-7.608-3.816-1.382-2.494-1.08-5.601.466-8.018 1.128-1.763 2.165-3.08.897-5.046-.276-.429-.623-.825-.812-1.29-.179-.439-.205-.916-.185-1.383.114-2.548 2.26-4.458 3.693-6.562.335-.492.67-1.003.771-1.572.257-1.448-1.024-2.7-1.706-4.034-2.211-4.317 1.563-9.228 5.235-11.819 2.168-1.528 4.765-2.146 7.102-3.391 1.064-.567 2.035-1.27 3.112-1.817 1.877-.954 3.925-.994 6.01-.732 5.94.749 12.694 4.63 14.07 10.218.934 3.787-.594 8.19 3.58 10.841 1.257.799 2.845 1.273 3.702 2.423 1.821 2.443-.855 6.06.81 8.591.371.564.927 1.008 1.432 1.48 2.668 2.497 4.044 6.064 3.67 9.509-.092.84-.289 1.688-.75 2.423-.634 1.01-1.71 1.724-2.76 2.398-1.572 1.008-3.175 2.003-4.959 2.667l-.053.02Z" fill="#B24600"/><path d="M73.37 45.113c.232 1.38.056 2.801-.617 4.062-1.818 3.4-6.32 4.065-10.117 4.198a25.174 25.174 0 0 1-4.21-.2c-1.24-.167-2.345.002-3.598-.023-2.476-.05-4.939-.707-7.03-1.902-1.017-.581-1.976-1.315-2.498-2.292-.718-1.343-.51-2.928-.129-4.38.22-.837.494-1.672.972-2.417.511-.797 1.247-1.474 1.672-2.312.801-1.572.144-3.41.856-4.952.557-1.208 1.961-2.572 3.125-3.327 1.585-1.028 3.63-1.352 5.578-1.233 1.95.12 3.835.647 5.692 1.194 1.462.43 2.72.164 3.791 1.25.85.86.553 2.264.824 3.308.915 3.506 5.074 5.356 5.69 9.026Z" fill="#963702"/><path d="M58.491 14.922s11.297 1.05 13.556 5.463c2.26 4.412 1.013 5.883 1.169 8.474.155 2.591 2.103 4.622 6.933 7.144 4.83 2.521.234 3.291.623 6.723.39 3.432 5.376 4.693 3.74 9.175" stroke="#D64D09" stroke-width="5" stroke-linecap="round" stroke-linejoin="round"/><path d="M84.181 120.622a19.133 19.133 0 0 1-1.96 3.93c-3.846 5.947-8.443 10.014-13 12.635-4.07 2.341-8.335 2.236-12.498 1.328-2.846-.62-5.676-2.576-8.421-4.389-2.824-1.867-5.608-4.09-8.24-7.044-2.072-2.328-3.931-5.218-4.246-10.719-.126-2.163.09-4.561.836-6.028.9-1.769 2.263-1.709 3.475-1.5 6.877 1.181 13.536 6.316 20.46 6.41 3.865.053 7.468-2.175 11.182-4.189 2.865-1.554 6.045-3.263 9.028-2.937 2.706.294 5.38 6.927 3.385 12.503Z" fill="#036793"/><path d="m40.985 107.742-.516-1.166a57.43 57.43 0 0 1-4.05-13.019c-.298-1.614-.6-3.381-1.834-4.466-1.708-1.5-5.036-1.308-7.151-1.023-.99.132-2.021.472-2.62 1.271-.989 1.323-.89 4.31-.929 5.906-.237 9.694 7.429 17.707 13.67 24.249 1.203 1.26 2.507 2.533 4.172 3.042 1.665.509 3.779-.02 4.507-1.601.535-1.16.208-2.522-.216-3.729-.727-2.074-1.822-3.973-3.069-5.774-.841-1.215-1.395-2.405-1.964-3.69Z" fill="#F8A17A"/><path d="M48.08 74.121c-2.729 4.678-5.8 9.166-8.738 13.715-1.64 2.54-3.3 5.123-4.18 8.016-4.047-.1-8.109-.955-12.085-1.716.64-5.367 3.474-10.235 6.01-14.914 2.641-4.874 5.487-9.64 7.973-14.6 2.022-4.032 5.798-8.843 10.848-6.42 3.884 1.865 3.281 7.21 2.479 10.656-.429 1.842-1.319 3.572-2.306 5.263Z" fill="#FBAE3E"/><path d="m78.668 107.742.516-1.166a57.42 57.42 0 0 0 4.05-13.019c.298-1.614.6-3.381 1.834-4.466 1.707-1.5 5.035-1.308 7.15-1.023.99.132 2.022.472 2.62 1.271.99 1.323.89 4.31.93 5.906.236 9.694-7.429 17.707-13.671 24.249-1.202 1.26-2.507 2.533-4.171 3.042-1.665.509-3.78-.02-4.508-1.601-.535-1.16-.207-2.522.216-3.729.727-2.074 1.823-3.973 3.07-5.774.84-1.215 1.395-2.405 1.964-3.69Z" fill="#F8A17A"/><path d="M71.572 74.121c2.73 4.678 5.802 9.166 8.738 13.715 1.641 2.54 3.3 5.123 4.18 8.016 4.048-.1 8.11-.955 12.085-1.716-.64-5.367-3.473-10.235-6.009-14.914-2.642-4.874-5.488-9.64-7.974-14.6-2.021-4.032-5.798-8.843-10.847-6.42-3.885 1.865-3.281 7.21-2.48 10.656.43 1.842 1.32 3.572 2.307 5.263Z" fill="#FBAE3E"/><path d="M80.055 112.222c-1.127-2.991-2.82-5.438-3.794-8.529-1.32-4.194-2.22-10.175-.705-14.518 1.61-4.61 3.585-8.248 3.705-13.383.103-4.396-.783-8.727-1.665-13.01-.872-4.242-1.268-5.473-5.422-6.12-1.482-.23-2.942-.631-4.42-.893-2.507-.446-5.046-.645-7.592-.648v-.002h-.198v.002a43.837 43.837 0 0 0-7.592.648c-1.478.262-2.939.663-4.42.893-4.154.646-4.55 1.878-5.423 6.12-.88 4.283-1.767 8.614-1.664 13.01.12 5.135 2.095 8.772 3.704 13.383 1.516 4.341.618 10.323-.704 14.518-.974 3.091-2.668 5.538-3.794 8.529-.088.233-.173.488-.106.732.087.312.39.497.67.642 5.52 2.883 11.71 3.75 17.762 4.198.53.039 1.049.077 1.56.109v.014l.106-.007.106.007v-.014c.511-.032 1.029-.07 1.56-.109 6.052-.446 12.24-1.313 17.762-4.198.28-.145.585-.33.67-.642.067-.242-.019-.497-.106-.732Z" fill="#FFCD56"/><path d="M54.283 63.336c2.447 2.78 7.15 3 10.441 1.864 2.241-.775 3.824-2.54 3.872-4.969.053-2.714-2.329-4.642-2.93-7.172-.341-1.435-.307-2.912-.273-4.37.041-1.704.053-3.411.135-5.112-1.685-.356-3.053-.534-4.845-.46-1.48.061-2.96-.095-4.442-.008-.12.007-.248.02-.332.098-.084.079-.101.204-.11.319-.199 2.3-.003 4.627-.16 6.933-.142 2.116-.617 4.249-1.858 6.002-1.51 2.139-1.138 5.01.502 6.875Z" fill="#F8A17A"/><path d="M65.568 52.718c-.266-1.334-.239-2.698-.206-4.049.041-1.703.053-3.41.135-5.11-1.685-.357-3.053-.535-4.845-.462-1.48.062-2.96-.094-4.442-.006-.118.006-.248.018-.332.097-.084.08-.1.204-.11.32-.199 2.3-.004 4.627-.16 6.932-.044.66-.126 1.32-.248 1.97.233.205.47.4.713.58 1.83 1.352 4.295 1.801 6.482 1.181a9.798 9.798 0 0 0 3.013-1.453Z" fill="#E5785C"/><path d="M84.533 123.628H35.527l-3.511-36.495a1.107 1.107 0 0 1 1.091-1.222h53.85c.647 0 1.153.567 1.09 1.222l-3.514 36.495Z" fill="#B8D1CE"/><path d="m32.103 86.577-.476 1.132h56.828l-.57-1.27-55.782.138Z" fill="#E3F2FD"/><path d="M84.918 124.66H35.14l-3.567-36.495a1.113 1.113 0 0 1 1.108-1.222h54.693c.658 0 1.172.568 1.108 1.222l-3.566 36.495Z" fill="#0B2D4E"/><path d="M63.14 106.664a3.453 3.453 0 0 0-3.252-3.64 3.453 3.453 0 0 0-.386 6.894 3.451 3.451 0 0 0 3.639-3.254Z" fill="#E3F2FD"/><path d="M54.203 140.76c2.273-.408 4.535-.855 6.78-1.229 11.264-1.875 23.01-4.079 33.242-9.354 2.357-1.22 4.81-3.14 6.035-5.538 3.211-6.302-3.2-12.215-9.46-10.427-10.459 2.987-19.542 9.464-29.566 13.682a405.46 405.46 0 0 0-5.053 2.18 480.796 480.796 0 0 1-4.383 1.897" fill="#007EC4"/><path d="M54.587 159.996c.864 3.29 1.738 6.614 2.748 9.848.02.065.043.128.065.192.474 1.34 1.05 2.641 1.504 3.988.29.857.548 1.728.737 2.612.09.417.161.837.206 1.26.019.171.082.427.036.595-.06.214-.316.397-.508.481a1.857 1.857 0 0 1-.648.134c-.883.048-1.754-.207-2.588-.502a24.044 24.044 0 0 1-1.526-.6c-.462-.201-1.002-.394-1.418-.677-.197-.134-.343-.391-.489-.583a41.76 41.76 0 0 1-1.392-1.955c-1.36-2.025-2.561-4.15-3.717-6.296-1.145-2.128-2.244-4.283-3.412-6.399-5.513-9.998-11.068-20.576-13.271-31.873-.504-2.605-.518-5.721.603-8.166 2.956-6.426 11.571-5.067 14.05.953 4.14 10.053 4.691 21.194 7.597 31.671.485 1.75.953 3.527 1.423 5.317Z" fill="#F8A17A"/><path d="M47.43 168.176c-1.09-2.036-2.14-4.087-3.24-6.079-5.513-9.997-11.068-20.576-13.27-31.872-.505-2.605-.519-5.721.603-8.167 2.955-6.425 11.57-5.066 14.05.953 4.14 10.054 4.69 21.194 7.596 31.672.485 1.748.952 3.527 1.421 5.314.403 1.536.81 3.079 1.23 4.614" fill="#007EC4"/><path d="M72.447 32.887c-.05-2.513-.428-4.893-1.099-6.862-2.89-8.504-13.495-10.461-19.776-4.237-7.004 6.941-4.055 23.253 3.508 28.887 2.022 1.507 4.748 2.008 7.166 1.316 7.32-2.091 10.359-11.252 10.201-19.104Z" fill="#F8A17A"/><path d="M72.434 25.51c-2.276-8.69-12.714-11.412-19.424-5.659-1.07.92-1.812 2.014-2.576 3.184-.648.994-1.548 1.746-2.12 2.837a9.865 9.865 0 0 0-1.075 3.623c-.118 1.228.28 2.304.31 3.484a4.323 4.323 0 0 1 1.415-3.287c.71-.636 1.609-1.01 2.437-1.482.828-.472 1.638-1.108 1.948-2.014 2.67 3.526 6.81 4.606 10.886 5.624 3.419.853 7.17 3.025 7.248 7.05.009.51.045.65.263 1.317.24-.605.328-1.048.4-1.694.074-.655.261-1.308.39-1.965.262-1.349.43-2.718.5-4.091.133-2.512-.073-4.913-.602-6.926Z" fill="#E5785C"/><path d="M74.379 40.43c.676-.52 1.196-1.282 1.486-2.084.912-2.699.813-5.688.701-8.582-.062-1.613-.127-3.248-.565-4.786-.477-1.677-1.383-3.167-2.454-4.443-3.093-3.686-7.709-5.558-12.146-5.176-1.782.153-3.093 1.014-4.659 1.744-1.527.712-3.322 1.104-4.931 1.639-1.854.617-3.763 1.262-5.236 2.557-1.074.946-1.859 2.195-2.418 3.517-.671 1.587-.737 3.35-.544 5.044.157 1.394.34 2.884.953 4.185.575 1.218 1.856 2.015 3.003 2.624-.17-.09-.023-2.103-.027-2.412-.026-1.776.07-3.602.624-5.304.532-1.664 1.59-2.68 2.964-3.694.552-.407 1.1-.825 1.56-1.337.231-.256 1.232-1.437 1.069-1.802.779 1.733 2 3.511 3.527 4.648 2.902 2.158 6.132 3.682 9.407 4.967.24.096.485.19.726.287.9.365 1.787.78 2.528 1.457 1.653 1.515 1.773 3.843 1.71 5.942-.007.23-.011.467.063.684.343 1.034 1.996.833 2.659.325Z" fill="#B24600"/><path d="M68.66 34.1c.249-.008.442-.042.535-.116.371-.3-.324-.766-.762-.95-.83-.347-3.55-.949-4.172-.345-.58.563.819.9 1.541 1.039.493.095 2.007.397 2.858.372ZM51.166 34.259c-.248 0-.442-.029-.535-.1-.373-.277.317-.739.751-.924.826-.352 3.537-.991 4.164-.43.584.523-.807.877-1.53 1.03-.49.103-2 .426-2.85.424Z" fill="#B24600"/><path d="M66.772 37.198c-.098 1.032-.682 1.819-1.306 1.76-.623-.062-1.048-.946-.95-1.977.1-1.032.683-1.819 1.307-1.76.622.061 1.048.946.95 1.977ZM55.347 37.181c.01 1.037-.49 1.881-1.116 1.887-.626.006-1.141-.83-1.15-1.866-.01-1.037.49-1.881 1.116-1.887.627-.006 1.142.829 1.15 1.866Z" fill="#061F34"/><path d="M61.983 42.376c.004.497-.859.91-1.928.919-1.069.01-1.939-.386-1.944-.884-.004-.497.858-.91 1.927-.92 1.07-.009 1.94.387 1.945.885Z" fill="#F38D70"/><path d="M64.642 45.104c-1.99 2.941-6.348 3.694-8.914.458l8.914-.458Z" fill="#fff"/></g></svg>